<?xml version="1.0" encoding="UTF-8" standalone="no"?>
<!-- Created with Inkscape (http://www.inkscape.org/) -->

<svg
   xmlns:dc="http://purl.org/dc/elements/1.1/"
   xmlns:cc="http://creativecommons.org/ns#"
   xmlns:rdf="http://www.w3.org/1999/02/22-rdf-syntax-ns#"
   xmlns:svg="http://www.w3.org/2000/svg"
   xmlns="http://www.w3.org/2000/svg"
   xmlns:xlink="http://www.w3.org/1999/xlink"
   xmlns:sodipodi="http://sodipodi.sourceforge.net/DTD/sodipodi-0.dtd"
   xmlns:inkscape="http://www.inkscape.org/namespaces/inkscape"
   width="400"
   height="90"
   viewBox="0 0 105.83333 23.812501"
   version="1.1"
   id="svg8"
   inkscape:version="0.92.1 r15371"
   sodipodi:docname="logo_teampass.svg">
  <defs
     id="defs2">
    <linearGradient
       inkscape:collect="always"
       id="linearGradient4684">
      <stop
         style="stop-color:#ffffff;stop-opacity:1;"
         offset="0"
         id="stop4680" />
      <stop
         style="stop-color:#ffffff;stop-opacity:0;"
         offset="1"
         id="stop4682" />
    </linearGradient>
    <linearGradient
       inkscape:collect="always"
       xlink:href="#linearGradient4684"
       id="linearGradient4686"
       x1="53.320271"
       y1="280.96381"
       x2="53.453907"
       y2="289.51642"
       gradientUnits="userSpaceOnUse" />
  </defs>
  <sodipodi:namedview
     id="base"
     pagecolor="#ffffff"
     bordercolor="#666666"
     borderopacity="1.0"
     inkscape:pageopacity="0.0"
     inkscape:pageshadow="2"
     inkscape:zoom="1.979899"
     inkscape:cx="172.46163"
     inkscape:cy="82.321327"
     inkscape:document-units="mm"
     inkscape:current-layer="layer1"
     showgrid="false"
     units="px"
     inkscape:snap-page="true"
     inkscape:pagecheckerboard="true"
     inkscape:window-width="1440"
     inkscape:window-height="837"
     inkscape:window-x="-8"
     inkscape:window-y="-8"
     inkscape:window-maximized="1" />
  <metadata
     id="metadata5">
    <rdf:RDF>
      <cc:Work
         rdf:about="">
        <dc:format>image/svg+xml</dc:format>
        <dc:type
           rdf:resource="http://purl.org/dc/dcmitype/StillImage" />
        <dc:title></dc:title>
      </cc:Work>
    </rdf:RDF>
  </metadata>
  <g
     inkscape:label="Calque 1"
     inkscape:groupmode="layer"
     id="layer1"
     transform="translate(0,-273.18748)">
    <text
       xml:space="preserve"
       style="font-style:normal;font-variant:normal;font-weight:bold;font-stretch:normal;font-size:21.78949738px;line-height:1.25;font-family:sans-serif;-inkscape-font-specification:'sans-serif, Bold';font-variant-ligatures:normal;font-variant-caps:normal;font-variant-numeric:normal;font-feature-settings:normal;text-align:start;letter-spacing:0px;word-spacing:0px;writing-mode:lr-tb;text-anchor:start;fill:#ffffff;fill-opacity:1;stroke:none;stroke-width:0.54473794;"
       x="15.482654"
       y="308.24194"
       id="text3682"
       transform="scale(1.0530134,0.94965554)"><tspan
         sodipodi:role="line"
         id="tspan3680"
         x="15.482654"
         y="308.24194"
         style="font-style:normal;font-variant:normal;font-weight:bold;font-stretch:normal;font-size:21.78949738px;font-family:sans-serif;-inkscape-font-specification:'sans-serif, Bold';font-variant-ligatures:normal;font-variant-caps:normal;font-variant-numeric:normal;font-feature-settings:normal;text-align:start;writing-mode:lr-tb;text-anchor:start;stroke-width:0.54473794;fill:#ffffff;">T</tspan></text>
    <text
       xml:space="preserve"
       style="font-style:normal;font-variant:normal;font-weight:normal;font-stretch:normal;font-size:17.89208221px;line-height:1.25;font-family:sans-serif;-inkscape-font-specification:'sans-serif, Normal';font-variant-ligatures:normal;font-variant-caps:normal;font-variant-numeric:normal;font-feature-settings:normal;text-align:start;letter-spacing:0px;word-spacing:0px;writing-mode:lr-tb;text-anchor:start;fill:#ffffff;fill-opacity:1;stroke:none;stroke-width:0.44730249;"
       x="34.002388"
       y="254.22791"
       id="text3682-0"
       transform="scale(0.86871271,1.1511285)"><tspan
         sodipodi:role="line"
         id="tspan3680-9"
         x="34.002388"
         y="254.22791"
         style="font-style:normal;font-variant:normal;font-weight:normal;font-stretch:normal;font-size:17.89208221px;font-family:sans-serif;-inkscape-font-specification:'sans-serif, Normal';font-variant-ligatures:normal;font-variant-caps:normal;font-variant-numeric:normal;font-feature-settings:normal;text-align:start;writing-mode:lr-tb;text-anchor:start;stroke-width:0.44730249;fill:#ffffff;">EAMPASS</tspan></text>
    <path
       style="fill:#24c8ff;fill-opacity:1;stroke-width:0.99999994"
       d="M 14.697266 51.019531 A 27.021579 27.779196 0 0 0 41.164062 73.332031 A 27.021579 27.779196 0 0 0 68.185547 45.552734 A 27.021579 27.779196 0 0 0 41.164062 17.773438 A 27.021579 27.779196 0 0 0 39.09375 17.863281 A 27.02158 27.779196 0 0 1 39.255859 18.609375 A 27.02158 27.779196 0 0 1 39.580078 21.365234 A 27.02158 27.779196 0 0 1 39.648438 23.330078 A 27.02158 27.779196 0 0 1 39.513672 26.103516 A 27.02158 27.779196 0 0 1 39.109375 28.849609 A 27.02158 27.779196 0 0 1 38.441406 31.539062 A 27.02158 27.779196 0 0 1 37.515625 34.148438 A 27.02158 27.779196 0 0 1 36.339844 36.648438 A 27.02158 27.779196 0 0 1 34.929688 39.015625 A 27.02158 27.779196 0 0 1 33.294922 41.226562 A 27.02158 27.779196 0 0 1 31.453125 43.257812 A 27.02158 27.779196 0 0 1 29.423828 45.089844 A 27.02158 27.779196 0 0 1 27.226562 46.705078 A 27.02158 27.779196 0 0 1 24.884766 48.087891 A 27.02158 27.779196 0 0 1 22.417969 49.220703 A 27.02158 27.779196 0 0 1 19.855469 50.097656 A 27.02158 27.779196 0 0 1 17.21875 50.705078 A 27.02158 27.779196 0 0 1 14.697266 51.019531 z "
       id="path4528"
       transform="matrix(0.26458333,0,0,0.26458333,0,273.18748)" />
    <path
       style="fill:#2457ff;fill-opacity:1;stroke-width:0.99999994"
       d="M 14.697266 51.019531 A 27.02158 27.779196 0 0 0 17.21875 50.705078 A 27.02158 27.779196 0 0 0 19.855469 50.097656 A 27.02158 27.779196 0 0 0 22.417969 49.220703 A 27.02158 27.779196 0 0 0 24.884766 48.087891 A 27.02158 27.779196 0 0 0 27.226562 46.705078 A 27.02158 27.779196 0 0 0 29.423828 45.089844 A 27.02158 27.779196 0 0 0 31.453125 43.257812 A 27.02158 27.779196 0 0 0 33.294922 41.226562 A 27.02158 27.779196 0 0 0 34.929688 39.015625 A 27.02158 27.779196 0 0 0 36.339844 36.648438 A 27.02158 27.779196 0 0 0 37.515625 34.148438 A 27.02158 27.779196 0 0 0 38.441406 31.539062 A 27.02158 27.779196 0 0 0 39.109375 28.849609 A 27.02158 27.779196 0 0 0 39.513672 26.103516 A 27.02158 27.779196 0 0 0 39.648438 23.330078 A 27.02158 27.779196 0 0 0 39.580078 21.365234 A 27.02158 27.779196 0 0 0 39.255859 18.609375 A 27.02158 27.779196 0 0 0 39.09375 17.863281 A 27.021579 27.779196 0 0 0 14.142578 45.552734 A 27.021579 27.779196 0 0 0 14.697266 51.019531 z "
       id="path3702"
       transform="matrix(0.26458333,0,0,0.26458333,0,273.18748)" />
    <ellipse
       style="opacity:1;fill:url(#linearGradient4686);fill-opacity:1;stroke:none;stroke-width:0.26458332"
       id="path4530"
       cx="53.520721"
       cy="291.85504"
       rx="54.188896"
       ry="11.158503" />
  </g>
</svg>
